<?xml version="1.0"?>
<svg xmlns="http://www.w3.org/2000/svg" xmlns:xlink="http://www.w3.org/1999/xlink" xmlns:svgjs="http://svgjs.com/svgjs" version="1.1" width="512" height="512" x="0" y="0" viewBox="0 0 512 512" style="enable-background:new 0 0 512 512" xml:space="preserve" class=""><g><g xmlns="http://www.w3.org/2000/svg" id="Solid"><path d="m88 240h32v32h-32z" fill="#ffffff" data-original="#000000" style=""/><path d="m325.5 80h2.5v-16h-24a8 8 0 0 1 -7.761-9.94l5.515-22.06h-43.508l5.515 22.06a8 8 0 0 1 -7.761 9.94h-24v16z" fill="#ffffff" data-original="#000000" style=""/><path d="m136 408a8 8 0 0 1 -8 8h-48a8 8 0 0 1 -8-8v-40h-32v112h128v-112h-32zm16 56h-16v-16h16z" fill="#ffffff" data-original="#000000" style=""/><path d="m232 368h32v32h-32z" fill="#ffffff" data-original="#000000" style=""/><path d="m392 88v154.29l16-4.787v-157.503a16.019 16.019 0 0 0 -16-16h-48v16h40a8 8 0 0 1 8 8z" fill="#ffffff" data-original="#000000" style=""/><path d="m216 64h-48a16.019 16.019 0 0 0 -16 16v144h16v-136a8 8 0 0 1 8-8h40z" fill="#ffffff" data-original="#000000" style=""/><path d="m136 280a8 8 0 0 1 -8 8h-48a8 8 0 0 1 -8-8v-40h-32v112h128v-112h-32zm16 56h-16v-16h16z" fill="#ffffff" data-original="#000000" style=""/><path d="m280 408a8 8 0 0 1 -8 8h-48a8 8 0 0 1 -8-8v-40h-32v112h128v-112h-32zm16 56h-16v-16h16z" fill="#ffffff" data-original="#000000" style=""/><path d="m216 128h16v16h-16z" fill="#ffffff" data-original="#000000" style=""/><path d="m392 400a8 8 0 0 1 -8 8h-56v16h64a16.019 16.019 0 0 0 16-16v-120.394l-16 4.787z" fill="#ffffff" data-original="#000000" style=""/><path d="m233.138 314.873 17.622 3.078 36.512-10.925-4.586-15.328-36.512 10.924z" fill="#ffffff" data-original="#000000" style=""/><path d="m468.922 244.327a8 8 0 0 0 -9.957-5.372l-160.951 48.157 4.586 15.328 160.951-48.156a8 8 0 0 0 5.371-9.957z" fill="#ffffff" data-original="#000000" style=""/><path d="m328 392h48v-94.82l-122.464 36.641a8.019 8.019 0 0 1 -3.67.216l-35.243-6.156a8 8 0 0 1 -4.1-13.711l26.072-24.5a8.016 8.016 0 0 1 3.185-1.835l136.22-40.757v-151.078h-192v256h136a8 8 0 0 1 8 8zm32-192h-64v-16h64zm-64-88h64v16h-64zm-32 0h16v16h-16zm0 32h96v16h-96zm0 40h16v16h-16zm0 32h96v16h-96zm-64-96a8 8 0 0 1 8-8h32a8 8 0 0 1 8 8v32a8 8 0 0 1 -8 8h-32a8 8 0 0 1 -8-8zm0 104v-32a8 8 0 0 1 8-8h32a8 8 0 0 1 8 8v32a8 8 0 0 1 -8 8h-32a8 8 0 0 1 -8-8z" fill="#ffffff" data-original="#000000" style=""/><path d="m216 200h16v16h-16z" fill="#ffffff" data-original="#000000" style=""/><path d="m88 368h32v32h-32z" fill="#ffffff" data-original="#000000" style=""/></g></g></svg>
